<?xml version="1.0" standalone="no"?>
<!DOCTYPE svg PUBLIC "-//W3C//DTD SVG 20010904//EN"
 "http://www.w3.org/TR/2001/REC-SVG-20010904/DTD/svg10.dtd">
<svg version="1.0" xmlns="http://www.w3.org/2000/svg"
 width="512.000000pt" height="512.000000pt" viewBox="0 0 512.000000 512.000000"
 preserveAspectRatio="xMidYMid meet">
<metadata>
Created by potrace 1.14, written by Peter Selinger 2001-2017
</metadata>
<g transform="translate(0.000000,512.000000) scale(0.100000,-0.100000)"
fill="#000000" stroke="none">
<path d="M466 4824 c-170 -41 -328 -170 -406 -331 -62 -128 -60 -69 -60 -1430
0 -858 3 -1258 11 -1295 35 -168 171 -340 330 -416 140 -67 122 -65 866 -66
598 0 671 -2 668 -16 -1 -8 -6 -46 -9 -85 -6 -64 -15 -156 -22 -230 -1 -16 -6
-68 -10 -115 -7 -85 -11 -128 -13 -142 -1 -5 -28 -8 -61 -8 -101 0 -154 -17
-208 -65 -55 -49 -90 -118 -99 -194 -7 -58 14 -103 60 -131 31 -19 58 -20
1040 -20 1110 0 1057 -3 1097 62 47 75 -9 232 -105 300 -47 33 -66 38 -163 43
-41 2 -75 5 -78 7 -3 4 -8 38 -18 153 -4 33 -8 85 -11 115 -3 30 -8 80 -10
110 -9 101 -17 184 -20 202 -4 17 26 18 673 17 754 -1 729 -3 872 68 104 52
212 161 262 263 72 148 68 54 65 1465 l-2 1270 -29 74 c-59 154 -162 271 -299
340 -45 23 -91 44 -102 46 -11 2 -38 9 -60 14 -26 7 -748 10 -2070 10 -1722
-1 -2039 -3 -2089 -15z"/>
</g>
</svg>
